PathFileType	4	(x/y/z)	S08_PSF_T05
DataRate	CameraRate	NumFrames	NumMarkers	Units	OrigDataRate	OrigDataStartFrame	OrigNumFrames
240	240	4	51	mm	240	262	418
Frame#	Time	Sternum			R.Acromium			L.Acromium			Top.Head			R.ASIS			L.ASIS			R.PSIS			L.PSIS			R.Great.Tro			L.Great.Tro			R.Iliac.Crest			L.Iliac.Crest			V.Sacral			R.Thigh.Upper.Post			R.Thigh.Lower.Ant			R.Thigh.Lower.Post			R.Thigh.Upper.Ant			R.Knee.Lat			R.Knee.Med			R.Shank.Upper.Post			R.Shank.Lower.Ant			R.Shank.Lower.Post			R.Shank.Upper.Ant			R.Ankle.Lat			R.Ankle.Med			R.Heel.Upper			R.Heel.Med			R.Heel.Lat			R.Toe.Lat			R.Toe.Med			R.Toe.Tip			L.Thigh.Upper.Post			L.Thigh.Lower.Ant			L.Thigh.Lower.Post			L.Thigh.Upper.Ant			L.Knee.Lat			L.Knee.Med			L.Shank.Upper.Post			L.Shank.Lower.Ant			L.Shank.Lower.Post			L.Shank.Upper.Ant			L.Ankle.Lat			L.Ankle.Med			L.Heel.Upper			L.Heel.Med			L.Heel.Lat			L.Toe.Lat			L.Toe.Med			L.Toe.Tip			Cervical.Spine			Back			
		X1	Y1	Z1	X2	Y2	Z2	X3	Y3	Z3	X4	Y4	Z4	X5	Y5	Z5	X6	Y6	Z6	X7	Y7	Z7	X8	Y8	Z8	X9	Y9	Z9	X10	Y10	Z10	X11	Y11	Z11	X12	Y12	Z12	X13	Y13	Z13	X14	Y14	Z14	X15	Y15	Z15	X16	Y16	Z16	X17	Y17	Z17	X18	Y18	Z18	X19	Y19	Z19	X20	Y20	Z20	X21	Y21	Z21	X22	Y22	Z22	X23	Y23	Z23	X24	Y24	Z24	X25	Y25	Z25	X26	Y26	Z26	X27	Y27	Z27	X28	Y28	Z28	X29	Y29	Z29	X30	Y30	Z30	X31	Y31	Z31	X32	Y32	Z32	X33	Y33	Z33	X34	Y34	Z34	X35	Y35	Z35	X36	Y36	Z36	X37	Y37	Z37	X38	Y38	Z38	X39	Y39	Z39	X40	Y40	Z40	X41	Y41	Z41	X42	Y42	Z42	X43	Y43	Z43	X44	Y44	Z44	X45	Y45	Z45	X46	Y46	Z46	X47	Y47	Z47	X48	Y48	Z48	X49	Y49	Z49	X50	Y50	Z50	X51	Y51	Z51	

262	1.0875	71.1	1196.1	311.73	-36.706	1433.9	487.92	-54.62	1464.8	151.53	-34.781	1756.3	334.39	38.35	985.78	427.86	55.828	990.38	195.19	-155.6	1011.3	332.3	-146.2	1013.7	238.57	-53.377	885.8	488.66	-21.406	880.6	120.6	-59.333	1056.5	462.47	-37.285	1069.9	154.67	-167.06	972.02	284.15	-126.37	702.71	466.52	-75.84	586.84	436.82	-141.73	614.76	444.44	-52.142	676.67	461.04	-140.36	500.59	423.07	-150.63	511.86	295.21	-280.9	361.4	419.27	-251.32	278.93	397.42	-313.95	292.74	407.94	-217.35	347.83	410.96	-384.69	138.66	362.24	-347.55	144.66	287.64	-440.64	113.9	311.5	-434.62	84.991	284.69	-444.23	89.014	346.37	NaN	NaN	NaN	-255.73	42.872	284.11	-192.26	43.789	334.51	33.603	675.89	137.24	145.82	622.75	162.02	80.541	599.88	156.99	103.24	697.39	136.07	137.15	513.03	177.04	137.6	514.05	302.79	149.09	323.89	177.66	244.74	269.33	198.52	173.7	255.74	193.39	213.13	337.24	183.37	265.7	103.49	208.52	285.61	121.53	294.11	226.72	62.08	258.58	253.37	37.267	292.04	245.57	38.294	228.35	411.64	91.696	195.2	425.39	109.8	307.95	475.82	149.86	258.58	-109.82	1496.6	317.19	-163.43	1213.8	323.96
263	1.0917	77.325	1196.1	311.28	-30.875	1433.7	487.4	-48.898	1464.5	150.97	-29.175	1756.2	333.93	44.733	985.53	427.59	62.26	990.18	194.92	-149.16	1011.1	331.96	-139.84	1013.7	238.12	-47.169	885.43	488.27	-14.965	880.49	120.31	-52.96	1056.3	462.2	-30.843	1069.7	154.33	-160.67	971.94	283.78	-119.94	702.18	466.04	-69.121	586.34	436.87	-135.07	614.19	444.15	-45.648	676.27	460.92	-133.63	500.13	423.2	-143.46	511.13	295.37	-275.72	362.59	419.41	-247.24	279.67	397.73	-309.65	294.36	408.18	-212.4	348.2	411.25	-382.41	141.09	362.79	-344.97	146.5	288.24	-438.51	117.4	311.96	-433	88.609	284.96	-442.59	92.436	346.65	NaN	NaN	NaN	-255.34	43.07	284.25	-192.05	43.571	334.53	39.726	675.86	137.38	151.85	622.62	162.34	86.564	599.81	157.23	109.39	697.3	136.32	142.93	512.81	177.32	143.17	513.86	302.98	153.51	323.58	177.82	248.61	268.23	198.98	177.51	255.23	193.55	217.62	336.41	183.81	267.92	102.46	208.76	287.98	120.14	294.5	228.32	62.41	258.95	254.49	36.94	292.28	246.65	38.342	228.62	413.47	88.698	195.64	427.5	106.31	308.36	478.55	145.73	259.14	-104.07	1496.3	316.65	-157.26	1213.4	323.49
264	1.0958	83.564	1196.1	310.81	-25.061	1433.5	486.86	-43.174	1464.3	150.41	-23.566	1756.1	333.47	51.161	985.34	427.3	68.703	990.04	194.64	-142.7	1011.1	331.65	-133.46	1013.7	237.69	-40.88	885.08	487.86	-8.5076	880.45	119.99	-46.543	1056.1	461.93	-24.387	1069.6	154	-154.27	971.93	283.42	-113.37	701.64	465.56	-62.222	585.84	436.94	-128.24	613.59	443.89	-39.005	675.89	460.8	-126.7	499.67	423.36	-136.09	510.39	295.56	-270.34	363.83	419.59	-242.98	280.46	398.1	-305.16	296.05	408.46	-207.26	348.61	411.58	-379.95	143.62	363.38	-342.2	148.41	288.9	-436.18	121.09	312.45	-431.19	92.421	285.26	-440.77	96.05	346.94	NaN	NaN	NaN	-254.9	43.295	284.39	-191.84	43.363	334.53	45.857	675.91	137.48	157.87	622.55	162.64	92.578	599.8	157.42	115.54	697.28	136.56	148.69	512.65	177.56	148.67	513.71	303.13	157.9	323.34	177.93	252.45	267.19	199.4	181.29	254.78	193.65	222.08	335.63	184.2	270.03	101.49	208.95	290.26	118.81	294.83	229.81	62.825	259.29	255.45	36.689	292.48	247.6	38.463	228.83	415.16	85.656	196.05	429.46	102.76	308.73	481.18	141.5	259.67	-98.332	1496.1	316.1	-151.07	1213.1	323.01
265	1.1	89.813	1196.2	310.34	-19.265	1433.4	486.32	-37.45	1464.1	149.84	-17.957	1756.1	333.01	57.63	985.21	427	75.154	989.97	194.34	-136.21	1011	331.34	-127.08	1013.8	237.27	-34.509	884.74	487.45	-2.0388	880.5	119.66	-40.089	1056	461.66	-17.92	1069.6	153.67	-147.84	971.99	283.07	-106.66	701.08	465.11	-55.143	585.35	437.02	-121.24	612.98	443.64	-32.211	675.52	460.69	-119.57	499.19	423.56	-128.53	509.62	295.8	-264.74	365.1	419.81	-238.52	281.3	398.51	-300.47	297.79	408.77	-201.92	349.03	411.97	-377.29	146.25	364.02	-339.24	150.38	289.6	-433.61	124.95	312.98	-429.19	96.431	285.59	-438.76	99.86	347.27	NaN	NaN	NaN	-254.42	43.551	284.54	-191.63	43.162	334.54	51.992	676.04	137.54	163.87	622.54	162.91	98.578	599.87	157.55	121.7	697.33	136.8	154.44	512.55	177.73	154.09	513.59	303.24	162.27	323.18	177.99	256.25	266.21	199.77	185.02	254.41	193.7	226.52	334.93	184.54	272.05	100.57	209.09	292.45	117.54	295.1	231.22	63.316	259.58	256.28	36.516	292.63	248.43	38.651	229	416.74	82.597	196.43	431.29	99.206	309.06	483.7	137.21	260.16	-92.604	1495.9	315.53	-144.86	1212.8	322.53
